<?xml version="1.0" encoding="UTF-8"?>
<svg xmlns="http://www.w3.org/2000/svg" xmlns:xlink="http://www.w3.org/1999/xlink" width="200px" height="67px" viewBox="0 0 200 67" version="1.1">
<g id="surface1">
<path style=" stroke:none;fill-rule:nonzero;fill:rgb(46.27451%,7.843137%,43.137255%);fill-opacity:1;" d="M 77.96875 0.664062 C 74.976562 1.472656 72.328125 3.011719 69.832031 5.4375 C 67.414062 7.828125 65.992188 10.328125 65.109375 13.796875 C 64.339844 16.683594 64.339844 18.800781 65.070312 21.921875 C 66.222656 26.8125 68.871094 30.660156 72.75 33.125 C 78.96875 37.054688 86.644531 36.9375 92.863281 32.742188 C 96.589844 30.238281 97.28125 28.273438 95.207031 26.15625 C 94.207031 25.195312 93.785156 25 92.75 25.195312 C 92.019531 25.308594 90.675781 26.003906 89.71875 26.734375 C 87.105469 28.738281 84.957031 29.429688 82.078125 29.238281 C 74.132812 28.738281 68.949219 20.417969 72.289062 13.488281 C 72.863281 12.332031 73.671875 10.90625 74.167969 10.328125 C 74.820312 9.519531 74.9375 9.097656 74.628906 8.636719 C 74.015625 7.632812 73.515625 7.632812 72.25 8.710938 C 69.101562 11.371094 67.757812 18.300781 69.484375 22.882812 C 70.5625 25.734375 73.824219 29.3125 76.511719 30.625 C 77.816406 31.238281 79.542969 31.664062 81.464844 31.816406 C 85.070312 32.164062 88.410156 31.199219 91.136719 29.042969 C 92.480469 28.003906 93.058594 27.773438 93.363281 28.082031 C 94.054688 28.773438 92.367188 30.355469 89.257812 31.816406 C 85.992188 33.394531 83.152344 33.820312 80.042969 33.164062 C 74.785156 32.085938 70.984375 29.160156 68.640625 24.421875 C 67.449219 21.996094 67.375 21.535156 67.375 17.953125 C 67.375 14.605469 67.488281 13.832031 68.371094 11.984375 C 70.523438 7.441406 73.515625 4.746094 77.894531 3.320312 C 82.421875 1.859375 88.910156 3.128906 92.40625 6.246094 C 93.863281 7.519531 94.707031 7.558594 95.359375 6.480469 C 95.707031 5.863281 95.550781 5.554688 94.246094 4.398438 C 90.023438 0.664062 83.5 -0.835938 77.96875 0.664062 Z M 77.96875 0.664062 "/>
<path style=" stroke:none;fill-rule:nonzero;fill:rgb(46.27451%,7.843137%,43.137255%);fill-opacity:1;" d="M 101.617188 0.316406 C 101.464844 0.433594 101.347656 8.367188 101.347656 17.953125 C 101.347656 30.929688 101.464844 35.4375 101.808594 35.785156 C 102.15625 36.128906 105.074219 36.246094 112.519531 36.246094 C 118.164062 36.246094 123.039062 36.128906 123.386719 36.015625 C 124.304688 35.667969 124.304688 28.351562 123.386719 28.003906 C 123.039062 27.890625 119.929688 27.773438 116.476562 27.773438 L 110.179688 27.773438 L 110.179688 0.046875 L 106.03125 0.046875 C 103.730469 0.046875 101.734375 0.164062 101.617188 0.316406 Z M 101.617188 0.316406 "/>
<path style=" stroke:none;fill-rule:nonzero;fill:rgb(46.27451%,7.843137%,43.137255%);fill-opacity:1;" d="M 143.695312 0.511719 C 143.5 0.78125 142.964844 1.972656 142.542969 3.128906 C 141.773438 5.09375 138.128906 14.488281 132.484375 29.082031 C 131.179688 32.472656 130.179688 35.4375 130.296875 35.746094 C 130.449219 36.167969 131.410156 36.246094 134.632812 36.167969 C 139.242188 36.054688 138.855469 36.285156 140.507812 32.28125 L 141.238281 30.46875 L 154.519531 30.46875 L 155.480469 32.855469 C 155.976562 34.203125 156.554688 35.515625 156.746094 35.746094 C 157.285156 36.476562 165.421875 36.4375 165.691406 35.746094 C 165.84375 35.320312 161.160156 22.691406 153.867188 3.707031 L 152.523438 0.242188 L 148.300781 0.125 C 145.230469 0.046875 143.960938 0.164062 143.695312 0.511719 Z M 149.988281 16.835938 C 150.910156 19.570312 151.753906 22.113281 151.871094 22.460938 C 152.0625 23.074219 151.71875 23.152344 148.03125 23.152344 C 144.539062 23.152344 143.960938 23.074219 143.960938 22.535156 C 143.960938 21.304688 147.53125 11.5625 147.917969 11.714844 C 148.148438 11.792969 149.066406 14.066406 149.988281 16.835938 Z M 149.988281 16.835938 "/>
<path style=" stroke:none;fill-rule:nonzero;fill:rgb(46.27451%,7.843137%,43.137255%);fill-opacity:1;" d="M 171.527344 0.277344 C 171.335938 0.433594 171.21875 8.367188 171.21875 17.953125 C 171.21875 30.929688 171.335938 35.4375 171.679688 35.785156 C 172.179688 36.285156 178.78125 36.4375 179.550781 35.9375 C 179.894531 35.746094 180.046875 33.972656 180.125 30.277344 L 180.242188 24.886719 L 182.351562 24.65625 C 183.503906 24.539062 184.730469 24.578125 185.039062 24.730469 C 185.347656 24.886719 186.535156 27.15625 187.6875 29.777344 C 190.796875 36.898438 190.070312 36.246094 195.25 36.246094 C 198.78125 36.246094 199.703125 36.128906 199.859375 35.667969 C 199.972656 35.359375 198.667969 32.394531 196.941406 29.082031 C 195.25 25.769531 193.867188 23.039062 193.945312 23 C 197.476562 20.496094 197.785156 20.148438 198.9375 17.878906 C 200.050781 15.605469 200.089844 15.257812 199.933594 12.101562 C 199.742188 8.097656 198.667969 5.632812 196.171875 3.359375 C 192.984375 0.472656 192.179688 0.316406 181.390625 0.125 C 176.132812 0.046875 171.679688 0.125 171.527344 0.277344 Z M 188.1875 8.136719 C 191.027344 8.945312 192.371094 12.023438 190.988281 14.644531 C 190.183594 16.261719 188.457031 16.800781 184.078125 16.800781 L 180.242188 16.800781 L 180.125 12.792969 C 180.085938 10.5625 180.125 8.519531 180.203125 8.25 C 180.472656 7.632812 186.039062 7.558594 188.1875 8.136719 Z M 188.1875 8.136719 "/>
<path style=" stroke:none;fill-rule:nonzero;fill:rgb(46.27451%,7.843137%,43.137255%);fill-opacity:1;" d="M 0.269531 1.050781 C 0.113281 1.203125 0 3.628906 0 6.402344 C 0 10.597656 0.113281 11.601562 0.613281 12.023438 C 1.035156 12.371094 1.382812 12.410156 1.84375 12.101562 C 2.378906 11.792969 2.535156 10.945312 2.609375 7.59375 L 2.726562 3.476562 L 11.824219 3.589844 C 20.617188 3.707031 20.960938 3.746094 22.1875 4.59375 C 24.414062 6.210938 25.453125 7.980469 25.644531 10.445312 C 25.988281 15.183594 23.109375 18.222656 17.660156 18.800781 C 13.359375 19.261719 13.476562 19.570312 20.15625 26.234375 C 23.226562 29.3125 25.722656 32.007812 25.722656 32.28125 C 25.722656 33.359375 24.609375 32.625 21.691406 29.699219 C 18.425781 26.386719 17.199219 25.886719 16.96875 27.773438 C 16.816406 29.121094 23.1875 35.476562 24.683594 35.476562 C 27.101562 35.476562 28.792969 33.550781 28.214844 31.355469 C 28.0625 30.738281 26.183594 28.46875 23.6875 25.964844 C 21.34375 23.578125 19.503906 21.574219 19.617188 21.496094 C 19.695312 21.421875 20.578125 21.074219 21.535156 20.726562 C 23.800781 19.878906 26.296875 17.722656 27.296875 15.757812 C 29.753906 10.945312 27.679688 4.4375 22.878906 1.859375 C 21.382812 1.050781 20.808594 1.011719 10.941406 0.894531 C 5.222656 0.816406 0.421875 0.894531 0.269531 1.050781 Z M 0.269531 1.050781 "/>
<path style=" stroke:none;fill-rule:nonzero;fill:rgb(46.27451%,7.843137%,43.137255%);fill-opacity:1;" d="M 37.046875 1.355469 C 35.28125 2.128906 33.207031 4.667969 32.632812 6.75 C 31.671875 10.214844 33.4375 13.988281 36.855469 15.722656 C 38.429688 16.566406 39.042969 16.605469 45.914062 16.605469 C 53.667969 16.605469 54.359375 16.761719 54.054688 18.417969 C 53.9375 19.03125 53.246094 19.109375 46.066406 19.300781 C 38.3125 19.496094 38.160156 19.496094 36.394531 20.574219 C 34.320312 21.765625 32.667969 24.230469 32.363281 26.582031 C 31.902344 30.007812 34.550781 34.128906 37.8125 35.089844 C 38.851562 35.359375 42.84375 35.476562 49.90625 35.398438 C 59.964844 35.28125 60.464844 35.246094 60.578125 34.550781 C 60.925781 32.933594 59.925781 32.78125 49.023438 32.78125 C 39.3125 32.78125 38.582031 32.742188 37.429688 32.007812 C 34.972656 30.507812 34.359375 26.734375 36.125 24.269531 C 37.46875 22.382812 39.195312 21.996094 46.875 21.996094 C 51.210938 21.996094 54.089844 21.84375 54.628906 21.574219 C 57.046875 20.34375 57.546875 17.453125 55.703125 15.375 L 54.589844 14.105469 L 46.261719 13.910156 L 37.929688 13.71875 L 36.699219 12.332031 C 34.972656 10.484375 34.667969 8.558594 35.664062 6.480469 C 37.046875 3.589844 37.390625 3.515625 48.332031 3.515625 C 57.046875 3.515625 59.199219 3.746094 57.355469 4.4375 C 57.007812 4.554688 52.710938 4.667969 47.71875 4.667969 L 38.695312 4.667969 L 37.582031 5.785156 C 35.585938 7.789062 36.394531 11.40625 39.082031 12.410156 C 41.382812 13.292969 42.574219 11.023438 40.308594 10.058594 C 38.964844 9.484375 38.734375 8.019531 39.886719 7.363281 C 40.347656 7.132812 44.226562 6.980469 49.792969 6.980469 C 58.507812 6.980469 59.003906 6.941406 59.8125 6.210938 C 61 5.09375 60.964844 2.78125 59.773438 1.664062 C 58.890625 0.855469 58.621094 0.816406 48.523438 0.816406 C 40.886719 0.855469 37.890625 0.972656 37.046875 1.355469 Z M 37.046875 1.355469 "/>
<path style=" stroke:none;fill-rule:nonzero;fill:rgb(46.27451%,7.843137%,43.137255%);fill-opacity:1;" d="M 17.046875 5.246094 C 16.699219 6.09375 17.160156 6.980469 17.929688 6.980469 C 19.308594 6.980469 21.074219 8.441406 21.535156 9.984375 C 22.074219 11.832031 21.304688 13.601562 19.695312 14.21875 C 19.117188 14.449219 16.125 14.679688 13.050781 14.757812 C 6.832031 14.914062 5.71875 15.257812 3.226562 17.683594 C 2.457031 18.417969 1.382812 19.957031 0.882812 21.074219 C 0.0390625 22.960938 0 23.421875 0.078125 29.160156 L 0.191406 35.28125 L 1.226562 35.398438 C 2.570312 35.550781 2.648438 35.246094 2.765625 28.121094 C 2.878906 22.84375 2.957031 22.421875 3.839844 21.113281 C 4.375 20.304688 5.488281 19.226562 6.335938 18.648438 C 7.792969 17.644531 8.136719 17.570312 14.203125 17.339844 C 17.699219 17.222656 20.578125 17.070312 20.617188 17.03125 C 20.691406 17.03125 21.421875 16.375 22.265625 15.605469 C 23.957031 14.066406 24.761719 11.910156 24.378906 9.945312 C 23.992188 8.136719 22.726562 6.246094 21.34375 5.402344 C 19.886719 4.515625 17.351562 4.4375 17.046875 5.246094 Z M 17.046875 5.246094 "/>
<path style=" stroke:none;fill-rule:nonzero;fill:rgb(46.27451%,7.843137%,43.137255%);fill-opacity:1;" d="M 38.542969 23.921875 C 36.355469 24.808594 35.742188 28.390625 37.390625 30.199219 C 39.082031 32.007812 41.460938 32.085938 41.460938 30.316406 C 41.460938 29.660156 41.152344 29.199219 40.425781 28.851562 C 39.65625 28.503906 39.351562 28.042969 39.351562 27.390625 L 39.351562 26.425781 L 46.414062 26.234375 C 52.441406 26.078125 53.515625 25.964844 53.859375 25.386719 C 54.167969 24.925781 54.128906 24.578125 53.785156 24.152344 C 53.363281 23.613281 52.210938 23.539062 46.296875 23.578125 C 42.496094 23.578125 38.964844 23.730469 38.542969 23.921875 Z M 38.542969 23.921875 "/>
<path style=" stroke:none;fill-rule:nonzero;fill:rgb(46.27451%,7.843137%,43.137255%);fill-opacity:1;" d="M 29.328125 49.183594 C 28.871094 49.300781 28.101562 49.800781 27.601562 50.339844 C 26.71875 51.300781 26.679688 51.496094 26.679688 58.003906 C 26.679688 64.511719 26.71875 64.703125 27.601562 65.664062 C 28.871094 67.011719 31.363281 67.359375 33.285156 66.4375 C 35.550781 65.320312 35.742188 64.625 35.625 57.539062 C 35.511719 51.339844 35.511719 51.265625 34.511719 50.261719 C 33.476562 49.261719 31.210938 48.800781 29.328125 49.183594 Z M 33.4375 50.839844 C 34.320312 51.535156 34.359375 51.804688 34.472656 57.503906 C 34.589844 64.28125 34.359375 65.125 32.210938 65.664062 C 30.25 66.167969 28.90625 65.703125 28.179688 64.316406 C 27.71875 63.355469 27.601562 62.046875 27.71875 57.347656 C 27.832031 51.804688 27.871094 51.535156 28.753906 50.839844 C 29.90625 49.878906 32.285156 49.878906 33.4375 50.839844 Z M 33.4375 50.839844 "/>
<path style=" stroke:none;fill-rule:nonzero;fill:rgb(46.27451%,7.843137%,43.137255%);fill-opacity:1;" d="M 68.792969 49.53125 C 66.492188 50.53125 65.722656 54.421875 67.449219 56.386719 C 67.835938 56.808594 69.179688 57.617188 70.484375 58.195312 C 73.324219 59.464844 74.476562 60.851562 74.476562 62.855469 C 74.476562 63.972656 74.246094 64.472656 73.476562 65.089844 C 72.441406 65.898438 70.101562 66.167969 69.253906 65.589844 C 68.5625 65.164062 67.949219 63.742188 67.949219 62.660156 C 67.949219 61.929688 67.757812 61.660156 67.183594 61.660156 C 66.53125 61.660156 66.453125 61.851562 66.683594 62.894531 C 67.105469 65.28125 67.835938 66.242188 69.5625 66.707031 C 72.902344 67.589844 75.628906 65.742188 75.628906 62.585938 C 75.628906 60.429688 74.4375 59.042969 71.019531 57.269531 C 68.257812 55.847656 67.449219 54.769531 67.71875 52.84375 C 68.027344 50.917969 68.910156 50.109375 70.90625 50.109375 C 72.941406 50.109375 73.976562 51.03125 74.324219 53.1875 C 74.476562 54.191406 74.785156 54.730469 75.167969 54.730469 C 75.628906 54.730469 75.667969 54.421875 75.472656 53.152344 C 75.128906 50.917969 74.589844 50.109375 73.132812 49.492188 C 71.480469 48.835938 70.40625 48.835938 68.792969 49.53125 Z M 68.792969 49.53125 "/>
<path style=" stroke:none;fill-rule:nonzero;fill:rgb(46.27451%,7.843137%,43.137255%);fill-opacity:1;" d="M 88.835938 49.53125 C 87.375 50.300781 86.761719 51.535156 86.761719 53.691406 C 86.761719 55.882812 87.566406 56.925781 90.371094 58.195312 C 92.902344 59.351562 94.324219 60.621094 94.4375 61.851562 C 94.746094 64.664062 93.75 65.898438 91.253906 65.898438 C 89.257812 65.898438 88.375 65.125 88.027344 63.046875 C 87.914062 62.160156 87.605469 61.660156 87.222656 61.660156 C 86.300781 61.660156 86.875 64.664062 88.066406 65.820312 C 88.835938 66.589844 89.449219 66.820312 90.90625 66.820312 C 94.09375 66.898438 95.589844 65.511719 95.589844 62.585938 C 95.589844 60.351562 94.707031 59.195312 91.789062 57.65625 C 88.257812 55.808594 87.914062 55.421875 87.914062 53.34375 C 87.914062 51.070312 88.871094 50.109375 91.136719 50.109375 C 92.519531 50.109375 92.980469 50.300781 93.632812 51.109375 C 94.09375 51.6875 94.4375 52.6875 94.4375 53.421875 C 94.4375 54.382812 94.59375 54.730469 95.054688 54.730469 C 96.089844 54.730469 95.550781 51.417969 94.324219 50.222656 C 93.09375 48.992188 90.523438 48.683594 88.835938 49.53125 Z M 88.835938 49.53125 "/>
<path style=" stroke:none;fill-rule:nonzero;fill:rgb(46.27451%,7.843137%,43.137255%);fill-opacity:1;" d="M 150.640625 49.183594 C 150.179688 49.300781 149.414062 49.800781 148.914062 50.339844 C 148.03125 51.300781 147.992188 51.496094 147.992188 58.042969 L 147.992188 64.742188 L 149.03125 65.78125 C 149.914062 66.667969 150.410156 66.820312 152.140625 66.820312 C 155.785156 66.820312 157.015625 65.203125 157.015625 60.429688 C 157.015625 58.425781 156.9375 58.195312 156.132812 57.964844 C 154.75 57.65625 152.292969 57.925781 152.140625 58.464844 C 152.023438 58.773438 152.601562 58.964844 153.828125 59.042969 L 155.671875 59.15625 L 155.785156 61.507812 C 155.863281 63.394531 155.746094 64.011719 155.09375 64.855469 C 154.402344 65.742188 153.980469 65.898438 152.371094 65.898438 C 150.988281 65.898438 150.296875 65.703125 149.683594 65.089844 C 148.953125 64.355469 148.914062 63.933594 149.03125 57.808594 C 149.144531 50.300781 149.261719 50.03125 152.175781 49.953125 C 154.367188 49.914062 155.441406 50.878906 155.746094 53.152344 C 155.902344 54.113281 156.171875 54.730469 156.476562 54.730469 C 157.476562 54.730469 156.746094 51.070312 155.554688 49.992188 C 154.828125 49.339844 152.0625 48.875 150.640625 49.183594 Z M 150.640625 49.183594 "/>
<path style=" stroke:none;fill-rule:nonzero;fill:rgb(46.27451%,7.843137%,43.137255%);fill-opacity:1;" d="M 190.527344 49.53125 C 188.226562 50.53125 187.34375 54.035156 188.917969 56.039062 C 189.378906 56.617188 190.835938 57.617188 192.179688 58.234375 C 193.523438 58.886719 194.984375 59.851562 195.40625 60.390625 C 197.210938 62.699219 195.710938 65.898438 192.792969 65.898438 C 190.835938 65.898438 189.992188 65.203125 189.683594 63.355469 C 189.53125 62.316406 189.222656 61.816406 188.726562 61.738281 C 188.109375 61.582031 188.035156 61.738281 188.265625 63.085938 C 188.6875 65.28125 189.453125 66.203125 191.257812 66.707031 C 193.179688 67.207031 195.289062 66.707031 196.363281 65.511719 C 196.710938 65.125 197.09375 64.046875 197.210938 63.125 C 197.4375 60.699219 196.402344 59.273438 193.140625 57.65625 C 191.679688 56.886719 190.183594 55.882812 189.875 55.421875 C 189.03125 54.230469 189.109375 52.34375 190.070312 51.109375 C 190.722656 50.300781 191.183594 50.109375 192.5625 50.109375 C 194.636719 50.109375 195.597656 50.957031 195.980469 53.152344 C 196.324219 55.191406 196.941406 55.191406 196.941406 53.1875 C 196.941406 49.800781 193.90625 48.066406 190.527344 49.53125 Z M 190.527344 49.53125 "/>
<path style=" stroke:none;fill-rule:nonzero;fill:rgb(46.27451%,7.843137%,43.137255%);fill-opacity:1;" d="M 3.457031 58.003906 C 3.457031 66.398438 3.492188 66.667969 4.222656 66.667969 C 4.953125 66.667969 4.992188 66.398438 4.992188 62.816406 L 4.992188 58.964844 L 8.445312 58.964844 C 11.210938 58.964844 11.902344 58.851562 11.902344 58.386719 C 11.902344 57.964844 11.171875 57.808594 8.5625 57.734375 L 5.183594 57.617188 L 5.066406 54.035156 L 4.953125 50.492188 L 8.445312 50.492188 C 11.25 50.492188 11.902344 50.378906 11.902344 49.914062 C 11.902344 49.453125 11.171875 49.339844 7.679688 49.339844 L 3.457031 49.339844 Z M 3.457031 58.003906 "/>
<path style=" stroke:none;fill-rule:nonzero;fill:rgb(46.27451%,7.843137%,43.137255%);fill-opacity:1;" d="M 16.125 58.003906 L 16.125 66.667969 L 19.808594 66.667969 C 22.574219 66.667969 23.457031 66.550781 23.339844 66.167969 C 23.226562 65.859375 22.152344 65.664062 20.230469 65.589844 L 17.277344 65.472656 L 17.277344 57.425781 C 17.277344 50.492188 17.199219 49.339844 16.699219 49.339844 C 16.199219 49.339844 16.125 50.570312 16.125 58.003906 Z M 16.125 58.003906 "/>
<path style=" stroke:none;fill-rule:nonzero;fill:rgb(46.27451%,7.843137%,43.137255%);fill-opacity:1;" d="M 40.308594 58.003906 C 40.308594 65.433594 40.386719 66.667969 40.886719 66.667969 C 41.347656 66.667969 41.460938 66.011719 41.460938 62.96875 L 41.460938 59.3125 L 43.265625 59.425781 L 45.109375 59.542969 L 47.027344 63.085938 C 48.371094 65.589844 49.175781 66.667969 49.636719 66.667969 C 50.253906 66.667969 50.175781 66.398438 49.101562 64.433594 C 48.410156 63.238281 47.488281 61.582031 47.066406 60.8125 L 46.261719 59.390625 L 47.375 58.542969 C 49.40625 56.925781 50.023438 54.191406 48.910156 51.804688 C 48.027344 49.914062 46.644531 49.339844 43.1875 49.339844 L 40.308594 49.339844 Z M 47.335938 51.648438 C 48.332031 52.765625 48.449219 53.113281 48.257812 54.691406 C 47.988281 57.234375 46.71875 58.195312 43.726562 58.195312 L 41.460938 58.195312 L 41.460938 50.03125 L 43.804688 50.183594 C 45.914062 50.339844 46.296875 50.492188 47.335938 51.648438 Z M 47.335938 51.648438 "/>
<path style=" stroke:none;fill-rule:nonzero;fill:rgb(46.27451%,7.843137%,43.137255%);fill-opacity:1;" d="M 54.515625 58.003906 L 54.515625 66.667969 L 58.96875 66.667969 C 62.34375 66.667969 63.382812 66.550781 63.265625 66.167969 C 63.152344 65.859375 61.921875 65.664062 59.390625 65.589844 L 55.664062 65.472656 L 55.664062 58.195312 L 59.351562 58.195312 C 62.113281 58.195312 62.996094 58.078125 62.882812 57.695312 C 62.765625 57.386719 61.578125 57.195312 59.199219 57.117188 L 55.664062 57 L 55.664062 50.492188 L 59.3125 50.492188 C 62.308594 50.492188 62.960938 50.378906 62.960938 49.914062 C 62.960938 49.453125 62.230469 49.339844 58.738281 49.339844 L 54.515625 49.339844 Z M 54.515625 58.003906 "/>
<path style=" stroke:none;fill-rule:nonzero;fill:rgb(46.27451%,7.843137%,43.137255%);fill-opacity:1;" d="M 99.8125 58.003906 L 99.8125 66.667969 L 104.230469 66.667969 C 107.914062 66.667969 108.644531 66.550781 108.644531 66.089844 C 108.644531 65.628906 107.953125 65.511719 104.804688 65.511719 L 100.964844 65.511719 L 100.964844 58.195312 L 104.652344 58.195312 C 107.414062 58.195312 108.296875 58.078125 108.183594 57.695312 C 108.066406 57.386719 106.878906 57.195312 104.496094 57.117188 L 100.964844 57 L 100.964844 50.492188 L 104.613281 50.492188 C 107.605469 50.492188 108.257812 50.378906 108.257812 49.914062 C 108.257812 49.453125 107.53125 49.339844 104.035156 49.339844 L 99.8125 49.339844 Z M 99.8125 58.003906 "/>
<path style=" stroke:none;fill-rule:nonzero;fill:rgb(46.27451%,7.843137%,43.137255%);fill-opacity:1;" d="M 112.867188 58.003906 L 112.867188 66.667969 L 116.550781 66.667969 C 119.316406 66.667969 120.199219 66.550781 120.082031 66.167969 C 119.96875 65.859375 118.894531 65.664062 116.972656 65.589844 L 114.019531 65.472656 L 114.019531 57.425781 C 114.019531 50.492188 113.941406 49.339844 113.441406 49.339844 C 112.941406 49.339844 112.867188 50.570312 112.867188 58.003906 Z M 112.867188 58.003906 "/>
<path style=" stroke:none;fill-rule:nonzero;fill:rgb(46.27451%,7.843137%,43.137255%);fill-opacity:1;" d="M 122.234375 49.992188 C 122.347656 50.378906 123.421875 54.265625 124.613281 58.65625 C 126.726562 66.242188 127.453125 67.820312 127.992188 65.972656 C 128.105469 65.628906 129.066406 62.007812 130.140625 58.003906 C 131.214844 53.960938 132.175781 50.378906 132.292969 49.992188 C 132.40625 49.609375 132.292969 49.339844 131.984375 49.339844 C 131.640625 49.339844 130.871094 51.609375 129.605469 56.308594 C 128.605469 60.160156 127.648438 63.625 127.492188 64.046875 C 127.300781 64.585938 126.609375 62.546875 125.152344 57.078125 C 123.730469 51.648438 122.964844 49.339844 122.578125 49.339844 C 122.234375 49.339844 122.117188 49.609375 122.234375 49.992188 Z M 122.234375 49.992188 "/>
<path style=" stroke:none;fill-rule:nonzero;fill:rgb(46.27451%,7.843137%,43.137255%);fill-opacity:1;" d="M 138.585938 49.53125 C 138.585938 49.683594 134.558594 64.550781 134.132812 66.050781 C 133.980469 66.550781 134.058594 66.707031 134.402344 66.589844 C 134.710938 66.472656 135.210938 65.394531 135.554688 64.125 L 136.167969 61.851562 L 139.085938 61.738281 L 142.003906 61.621094 L 142.582031 63.625 C 142.925781 64.742188 143.195312 65.898438 143.195312 66.167969 C 143.195312 66.4375 143.464844 66.667969 143.808594 66.667969 C 144.191406 66.667969 144.347656 66.4375 144.191406 65.972656 C 143.730469 64.511719 139.738281 49.683594 139.738281 49.53125 C 139.738281 49.414062 139.46875 49.339844 139.164062 49.339844 C 138.855469 49.339844 138.585938 49.414062 138.585938 49.53125 Z M 140.660156 55.808594 C 141.199219 58.195312 141.660156 60.234375 141.660156 60.3125 C 141.660156 60.429688 140.546875 60.503906 139.164062 60.503906 C 137.511719 60.503906 136.667969 60.351562 136.667969 60.042969 C 136.667969 58.773438 139.125 50.492188 139.355469 50.957031 C 139.507812 51.226562 140.085938 53.421875 140.660156 55.808594 Z M 140.660156 55.808594 "/>
<path style=" stroke:none;fill-rule:nonzero;fill:rgb(46.27451%,7.843137%,43.137255%);fill-opacity:1;" d="M 161.238281 58.003906 L 161.238281 66.667969 L 165.691406 66.667969 C 169.070312 66.667969 170.105469 66.550781 169.992188 66.167969 C 169.875 65.859375 168.648438 65.664062 166.113281 65.589844 L 162.390625 65.472656 L 162.390625 58.195312 L 166.035156 58.195312 C 170.757812 58.195312 170.835938 57.503906 166.152344 57.347656 L 162.582031 57.234375 L 162.464844 53.84375 L 162.351562 50.492188 L 166.035156 50.492188 C 169.03125 50.492188 169.683594 50.378906 169.683594 49.914062 C 169.683594 49.453125 168.953125 49.339844 165.460938 49.339844 L 161.238281 49.339844 Z M 161.238281 58.003906 "/>
<path style=" stroke:none;fill-rule:nonzero;fill:rgb(46.27451%,7.843137%,43.137255%);fill-opacity:1;" d="M 173.90625 58.003906 C 173.90625 65.433594 173.984375 66.667969 174.480469 66.667969 C 174.980469 66.667969 175.058594 65.628906 175.058594 59.621094 C 175.058594 55.730469 175.171875 52.417969 175.328125 52.304688 C 175.441406 52.148438 177.015625 55.34375 178.820312 59.351562 C 181.355469 65.089844 182.238281 66.667969 182.773438 66.667969 C 183.464844 66.667969 183.503906 66.203125 183.503906 58.003906 C 183.503906 50.570312 183.425781 49.339844 182.929688 49.339844 C 182.429688 49.339844 182.351562 50.378906 182.351562 56.269531 C 182.351562 60.621094 182.199219 63.203125 181.96875 63.203125 C 181.777344 63.203125 181.585938 63.046875 181.585938 62.855469 C 181.585938 62.660156 180.164062 59.542969 178.4375 55.921875 C 176.054688 50.917969 175.136719 49.339844 174.597656 49.339844 C 173.945312 49.339844 173.90625 49.839844 173.90625 58.003906 Z M 173.90625 58.003906 "/>
</g>
</svg>
